<svg xmlns="http://www.w3.org/2000/svg" xmlns:xlink="http://www.w3.org/1999/xlink" width="17" height="19" viewBox="0 0 17 19">
    <defs>
        <path id="a" d="M16.388 9.272a1.39 1.39 0 0 0-.412-1.003L8.728 1.014A1.442 1.442 0 0 0 7.715.591c-.378 0-.735.156-1.002.423l-.835.836a1.4 1.4 0 0 0 0 2.006L9.14 7.132H1.303C.5 7.132 0 7.801 0 8.56v1.426c0 .758.501 1.426 1.303 1.426H9.14l-3.262 3.266a1.444 1.444 0 0 0-.423 1.014c0 .379.156.746.423 1.014l.835.836c.267.256.624.412 1.002.412a1.48 1.48 0 0 0 1.013-.412l7.248-7.255c.267-.268.412-.635.412-1.014z"/>
    </defs>
    <g fill="none" fill-rule="evenodd">
        <use fill="#476AE8" xlink:href="#a"/>
        <use fill="#000" xlink:href="#a"/>
    </g>
</svg>
